<?xml version="1.0" encoding="UTF-8"?>
<svg width="499px" height="526px" viewBox="0 0 499 526" version="1.1" xmlns="http://www.w3.org/2000/svg" xmlns:xlink="http://www.w3.org/1999/xlink">
    <!-- Generator: Sketch 50.2 (55047) - http://www.bohemiancoding.com/sketch -->
    <title>Group 3</title>
    <desc>Created with Sketch.</desc>
    <defs></defs>
    <g id="Page-1" stroke="none" stroke-width="1" fill="none" fill-rule="evenodd">
        <g id="Group-3" transform="translate(0.000000, 5.000000)">
            <g id="fluflu" transform="translate(71.000000, 0.000000)">
                <g id="Group" transform="translate(19.670273, 214.193548)">
                    <g id="Shape">
                        <path d="M77.4960828,65.5967742 C60.9643072,75.9717742 39.3717838,74.9677419 23.8521576,61.5806452 C5.63346602,46.1854839 2.9344006,19.4112903 17.1044941,0.334677419 C16.4297277,1.00403226 15.7549613,1.6733871 15.0801949,2.67741935 C-6.51232837,27.7782258 -3.81326296,65.5967742 21.4904754,87.016129 C44.7699146,107.096774 83.9063633,109.774194 105.83627,89.6935484 L77.4960828,65.5967742 Z" fill="#1E375C" fill-rule="nonzero"></path>
                        <path d="M77.4960828,65.5967742 C60.9643072,75.9717742 39.3717838,74.9677419 23.8521576,61.5806452 C5.63346602,46.1854839 2.9344006,19.4112903 17.1044941,0.334677419 C16.4297277,1.00403226 15.7549613,1.6733871 15.0801949,2.67741935 C-6.51232837,27.7782258 -3.81326296,65.5967742 21.4904754,87.016129 C44.7699146,107.096774 83.9063633,109.774194 105.83627,89.6935484 L77.4960828,65.5967742 Z" stroke="#1E3250" stroke-width="8.98560215" stroke-linecap="round" stroke-linejoin="round"></path>
                    </g>
                    <g id="Shape" transform="translate(170.951224, 0.000000)">
                        <path d="M28.6775701,65.5967742 C45.2093458,75.9717742 66.8018692,74.9677419 82.3214953,61.5806452 C100.540187,46.1854839 103.239252,19.4112903 89.0691589,0.334677419 C89.7439252,1.00403226 90.4186916,1.6733871 91.0934579,2.67741935 C112.685982,27.7782258 109.986916,65.5967742 84.6831776,87.016129 C61.4037383,107.096774 22.2672897,109.774194 0.337383177,89.6935484 L28.6775701,65.5967742 Z" fill="#1E375C" fill-rule="nonzero"></path>
                        <path d="M28.6775701,65.5967742 C45.2093458,75.9717742 66.8018692,74.9677419 82.3214953,61.5806452 C100.540187,46.1854839 103.239252,19.4112903 89.0691589,0.334677419 C89.7439252,1.00403226 90.4186916,1.6733871 91.0934579,2.67741935 C112.685982,27.7782258 109.986916,65.5967742 84.6831776,87.016129 C61.4037383,107.096774 22.2672897,109.774194 0.337383177,89.6935484 L28.6775701,65.5967742 Z" stroke="#1E3250" stroke-width="8.98560215" stroke-linecap="round" stroke-linejoin="round"></path>
                    </g>
                </g>
                <path d="M246.627103,360.112903 C284.751402,360.112903 315.790654,329.322581 315.790654,291.504032 C315.790654,290.5 315.790654,289.16129 315.453271,288.157258 C313.766356,314.931452 291.161682,336.016129 263.833644,336.016129 C240.891589,336.016129 221.323364,320.955645 214.575701,300.540323 C214.575701,268.41129 227.058879,238.959677 247.301869,216.53629 C270.918692,193.778226 285.426169,161.649194 285.426169,126.508065 C285.426169,56.8951613 228.408411,0.334677419 158.23271,0.334677419 C88.0570093,0.334677419 31.0392523,56.8951613 31.0392523,126.508065 C31.0392523,161.983871 45.546729,193.778226 69.1635515,216.53629 C89.4065421,238.625 101.552336,268.076613 101.88972,300.205645 C95.1420561,320.955645 75.5738318,336.016129 52.2943925,336.016129 C24.9663551,336.016129 2.36168224,314.931452 0.674766356,288.157258 C0.674766356,289.16129 0.337383177,290.5 0.337383177,291.504032 C0.337383177,329.322581 31.3766356,360.112903 69.5009346,360.112903 C94.8046729,360.112903 120.108411,346.725806 134.278505,326.645161 C135.290654,345.052419 141.363551,363.125 151.82243,377.850806 C179.487851,416.673387 233.806542,426.044355 272.94299,398.600806 C274.292523,397.596774 275.304672,396.927419 276.316823,395.923387 C247.301869,413.66129 208.840187,405.96371 188.934579,377.850806 C177.126169,361.116935 174.427103,341.03629 179.487851,322.96371 C193.320561,345.052419 219.973831,360.112903 246.627103,360.112903 Z" id="Shape" fill="#1E375C" fill-rule="nonzero"></path>
                <path d="M246.627103,360.112903 C284.751402,360.112903 315.790654,329.322581 315.790654,291.504032 C315.790654,290.5 315.790654,289.16129 315.453271,288.157258 C313.766356,314.931452 291.161682,336.016129 263.833644,336.016129 C240.891589,336.016129 221.323364,320.955645 214.575701,300.540323 C214.575701,268.41129 227.058879,238.959677 247.301869,216.53629 C270.918692,193.778226 285.426169,161.649194 285.426169,126.508065 C285.426169,56.8951613 228.408411,41.8346774 158.23271,41.8346774 C88.0570093,41.8346774 31.0392523,56.8951613 31.0392523,126.508065 C31.0392523,161.983871 45.546729,193.778226 69.1635515,216.53629 C89.4065421,238.625 101.552336,268.076613 101.88972,300.205645 C95.1420561,320.955645 75.5738318,336.016129 52.2943925,336.016129 C24.9663551,336.016129 2.36168224,314.931452 0.674766356,288.157258 C0.674766356,289.16129 0.337383177,290.5 0.337383177,291.504032 C0.337383177,329.322581 31.3766356,360.112903 69.5009346,360.112903 C94.8046729,360.112903 120.108411,346.725806 134.278505,326.645161 C135.290654,345.052419 141.363551,363.125 151.82243,377.850806 C179.487851,416.673387 233.806542,426.044355 272.94299,398.600806 C274.292523,397.596774 275.304672,396.927419 276.316823,395.923387 C247.301869,413.66129 208.840187,405.96371 188.934579,377.850806 C177.126169,361.116935 174.427103,341.03629 179.487851,322.96371 C193.320561,345.052419 219.973831,360.112903 246.627103,360.112903 Z" id="Shape" fill="#1E375C" fill-rule="nonzero"></path>
                <path d="M190.194594,256.930137 C192.430153,245.620944 197.933071,235.475933 205.67155,227.326662 C208.766941,224.499364 211.518399,221.339442 213.925926,217.846897 C209.282839,206.537705 187.099203,225.663545 160.444444,225.663545 C133.789686,225.663545 111.60605,206.537705 106.962963,217.680586 C109.370489,221.173131 112.121948,224.333052 115.217339,227.160351 C122.955818,235.309621 128.286769,245.620944 130.694295,256.763824 C139.292604,260.921616 149.610575,263.24998 160.616411,263.24998 C171.278314,263.582602 181.596285,261.087928 190.194594,256.930137 Z" id="Shape" fill="#0B203E" fill-rule="nonzero" opacity="0.600000024"></path>
                <path d="M246.627103,360.112903 C284.751402,360.112903 315.790654,329.322581 315.790654,291.504032 C315.790654,290.5 315.790654,289.16129 315.453271,288.157258 C313.766356,314.931452 291.161682,336.016129 263.833644,336.016129 C240.891589,336.016129 221.323364,320.955645 214.575701,300.540323 C214.575701,268.41129 227.058879,238.959677 247.301869,216.53629 C270.918692,193.778226 285.426169,161.649194 285.426169,126.508065 C285.426169,56.8951613 228.408411,0.334677419 158.23271,0.334677419 C88.0570093,0.334677419 31.0392523,56.8951613 31.0392523,126.508065 C31.0392523,161.983871 45.546729,193.778226 69.1635515,216.53629 C89.4065421,238.625 101.552336,268.076613 101.88972,300.205645 C95.1420561,320.955645 75.5738318,336.016129 52.2943925,336.016129 C24.9663551,336.016129 2.36168224,314.931452 0.674766356,288.157258 C0.674766356,289.16129 0.337383177,290.5 0.337383177,291.504032 C0.337383177,329.322581 31.3766356,360.112903 69.5009346,360.112903 C94.8046729,360.112903 120.108411,346.725806 134.278505,326.645161 C135.290654,345.052419 141.363551,363.125 151.82243,377.850806 C179.487851,416.673387 233.806542,426.044355 272.94299,398.600806 C274.292523,397.596774 275.304672,396.927419 276.316823,395.923387 C247.301869,413.66129 208.840187,405.96371 188.934579,377.850806 C177.126169,361.116935 174.427103,341.03629 179.487851,322.96371 C193.320561,345.052419 219.973831,360.112903 246.627103,360.112903 Z" id="Shape" stroke="#1E3250" stroke-width="8.98560215" stroke-linecap="round" stroke-linejoin="round"></path>
                <path d="M175.776636,291.504032 C171.728038,302.883065 174.427103,317.274194 182.186916,326.979839" id="Shape" stroke="#1E3250" stroke-width="8.98560215" stroke-linecap="round" stroke-linejoin="round"></path>
                <path d="M133.603738,327.649194 C141.363551,318.278226 143.725234,303.887097 139.339252,292.173387" id="Shape" stroke="#1E3250" stroke-width="8.98560215" stroke-linecap="round" stroke-linejoin="round"></path>
                <g id="Group" transform="translate(92.207655, 183.514785)">
                    <g id="Shape" stroke-linecap="round" stroke-linejoin="round" transform="translate(4.569319, 19.586597)" stroke="#132949" stroke-width="15.1856693">
                        <path d="M25.0074699,0.564170508 C25.0074699,7.2768433 19.3239541,12.8707374 12.5037349,12.8707374 C5.68351588,12.8707374 0,7.2768433 0,0.564170508"></path>
                        <path d="M122.449537,0.564170508 C122.449537,7.2768433 116.76602,12.8707374 109.945801,12.8707374 C103.125582,12.8707374 97.4420661,7.2768433 97.4420661,0.564170508"></path>
                    </g>
                    <g id="Oval" fill-rule="nonzero">
                        <g id="Group">
                            <ellipse id="Oval" fill="#FFFFFF" cx="17.0730533" cy="16.7944316" rx="17.0505477" ry="16.781682"></ellipse>
                            <ellipse id="Oval" fill="#55271F" cx="11.957889" cy="10.6411482" rx="6.25186747" ry="6.15328341"></ellipse>
                        </g>
                        <g id="Group" transform="translate(97.428293, 0.000000)">
                            <ellipse id="Oval" fill="#FFFFFF" cx="17.0868255" cy="16.7944316" rx="17.0505477" ry="16.781682"></ellipse>
                            <ellipse id="Oval" fill="#55271F" cx="11.4033096" cy="10.6411482" rx="6.25186747" ry="6.15328341"></ellipse>
                        </g>
                    </g>
                </g>
                <ellipse id="Oval" fill="#FFFFFF" fill-rule="nonzero" opacity="0.347882699" cx="102.227103" cy="75.6370968" rx="3.71121495" ry="3.68145161"></ellipse>
                <ellipse id="Oval" fill="#FFFFFF" fill-rule="nonzero" opacity="0.347882699" cx="165.992523" cy="79.9879032" rx="7.75981308" ry="7.69758065"></ellipse>
                <ellipse id="Oval" fill="#FFFFFF" fill-rule="nonzero" opacity="0.347882699" cx="145.412149" cy="99.3991935" rx="3.71121495" ry="3.68145161"></ellipse>
                <ellipse id="Oval" fill="#FFFFFF" fill-rule="nonzero" opacity="0.347882699" cx="108.637383" cy="110.443548" rx="7.4224299" ry="7.36290323"></ellipse>
                <ellipse id="Oval" fill="#FFFFFF" fill-rule="nonzero" opacity="0.347882699" cx="223.01028" cy="95.7177419" rx="8.09719626" ry="8.03225806"></ellipse>
                <ellipse id="Oval" fill="#FFFFFF" fill-rule="nonzero" opacity="0.347882699" cx="195.682243" cy="137.887097" rx="4.72336449" ry="4.68548387"></ellipse>
                <ellipse id="Oval" fill="#FFFFFF" fill-rule="nonzero" opacity="0.347882699" cx="92.4429907" cy="130.524194" rx="3.37383177" ry="3.34677419"></ellipse>
                <ellipse id="Oval" fill="#FFFFFF" fill-rule="nonzero" opacity="0.347882699" cx="240.554205" cy="136.548387" rx="6.0728972" ry="6.02419355"></ellipse>
                <ellipse id="Oval" fill="#FFFFFF" fill-rule="nonzero" opacity="0.347882699" cx="67.4766356" cy="156.629032" rx="5.06074766" ry="5.02016129"></ellipse>
                <ellipse id="Oval" fill="#FFFFFF" fill-rule="nonzero" opacity="0.347882699" cx="152.497197" cy="144.915323" rx="7.08504672" ry="7.02822581"></ellipse>
                <ellipse id="Oval" fill="#FFFFFF" fill-rule="nonzero" opacity="0.347882699" cx="226.384112" cy="64.5927419" rx="8.43457944" ry="8.36693548"></ellipse>
                <ellipse id="Oval" fill="#FFFFFF" fill-rule="nonzero" opacity="0.347882699" cx="65.1149533" cy="103.080645" rx="7.4224299" ry="7.36290323"></ellipse>
                <ellipse id="Oval" fill="#FFFFFF" fill-rule="nonzero" opacity="0.347882699" cx="151.82243" cy="38.4879032" rx="14.1700934" ry="14.0564516"></ellipse>
                <ellipse id="Oval" fill="#FFFFFF" fill-rule="nonzero" opacity="0.462466033" cx="343.793458" cy="111.782258" rx="16.1943925" ry="16.0645161"></ellipse>
                <ellipse id="Oval" fill="#FFFFFF" fill-rule="nonzero" opacity="0.462466033" cx="309.04299" cy="62.9193548" rx="4.04859813" ry="4.01612903"></ellipse>
                <ellipse id="Oval" fill="#FFFFFF" fill-rule="nonzero" opacity="0.462466033" cx="323.213084" cy="159.975806" rx="5.39813084" ry="5.35483871"></ellipse>
                <ellipse id="Oval" fill="#FFFFFF" fill-rule="nonzero" opacity="0.462466033" cx="331.31028" cy="202.814516" rx="10.4588785" ry="10.375"></ellipse>
            </g>
            <text id="showba.{less}" font-family="FiraSans-Bold, Fira Sans" font-size="80" font-weight="bold" fill="#132949">
                <tspan x="0" y="509">showba.{less}</tspan>
            </text>
        </g>
    </g>
</svg>